<svg width="651.201" height="88.5" viewBox="0 0 651.201 88.5" xmlns="http://www.w3.org/2000/svg"><g id="svgGroup" stroke-linecap="round" fill-rule="evenodd" font-size="9pt" stroke="#ffffff" stroke-width="0" fill="#ffffff" style="stroke:#ffffff;stroke-width:0;fill:#ffffff"><path d="M 451.701 66.5 L 441.801 66.5 L 425.401 16.9 L 433.701 14 L 447.101 56.3 L 459.301 18.2 L 469.001 18.2 L 480.901 56.3 L 494.201 14 L 502.201 16.9 L 485.701 66.5 L 475.801 66.5 L 463.801 27.8 L 451.701 66.5 Z M 98.901 61.6 L 92.101 67.4 L 74.601 45.7 L 57.301 67.2 L 50.901 61.6 L 69.401 40.1 L 51.601 19.5 L 58.601 13.4 L 74.701 34.2 L 90.501 13.8 L 97.201 19.5 L 79.901 39.7 L 98.901 61.6 Z M 256.001 62.3 L 259.801 54.8 A 18.557 18.557 0 0 0 262.944 56.926 Q 264.499 57.77 266.351 58.45 A 24.073 24.073 0 0 0 273.962 59.887 A 27.464 27.464 0 0 0 274.801 59.9 Q 280.193 59.9 283.035 58.185 A 7.738 7.738 0 0 0 283.251 58.05 Q 286.101 56.2 286.101 53.3 A 7.123 7.123 0 0 0 285.786 51.153 A 6.212 6.212 0 0 0 285.051 49.6 A 6.384 6.384 0 0 0 284.122 48.506 Q 283.108 47.534 281.434 46.581 A 22.3 22.3 0 0 0 281.201 46.45 A 28.462 28.462 0 0 0 279.206 45.457 Q 277.091 44.495 274.102 43.446 A 103.602 103.602 0 0 0 273.101 43.1 A 46.616 46.616 0 0 1 268.703 41.357 Q 266.589 40.383 264.913 39.295 A 19.335 19.335 0 0 1 262.151 37.15 A 11.324 11.324 0 0 1 258.857 31.154 A 16.794 16.794 0 0 1 258.501 27.6 Q 258.501 21.6 263.751 17.45 Q 268.155 13.969 275.409 13.408 A 37.527 37.527 0 0 1 278.301 13.3 A 40.794 40.794 0 0 1 282.746 13.531 Q 285.054 13.784 287.071 14.315 A 25.234 25.234 0 0 1 287.201 14.35 Q 291.101 15.4 294.201 17 L 291.701 24.4 Q 289.001 22.8 285.551 21.8 A 25.024 25.024 0 0 0 281.067 20.953 A 31.837 31.837 0 0 0 277.901 20.8 A 20.632 20.632 0 0 0 274.964 20.995 Q 271.878 21.44 270.001 22.9 A 9.322 9.322 0 0 0 268.643 24.173 Q 267.94 24.992 267.605 25.865 A 4.529 4.529 0 0 0 267.301 27.5 A 4.921 4.921 0 0 0 268.796 31.052 A 7.082 7.082 0 0 0 269.401 31.6 A 9.88 9.88 0 0 0 270.701 32.469 Q 272.974 33.771 277.399 35.234 A 84.459 84.459 0 0 0 277.601 35.3 A 67.753 67.753 0 0 1 282.663 37.198 Q 288.59 39.717 291.401 42.6 Q 295.301 46.6 295.301 52.6 Q 295.301 59.348 290.049 63.355 A 16.618 16.618 0 0 1 289.651 63.65 Q 284.911 67.047 277.462 67.595 A 40.423 40.423 0 0 1 274.501 67.7 Q 268.601 67.7 263.851 66.2 A 30.883 30.883 0 0 1 260.01 64.715 Q 258.03 63.784 256.448 62.636 A 18.229 18.229 0 0 1 256.001 62.3 Z M 302.801 62.3 L 306.601 54.8 A 18.557 18.557 0 0 0 309.744 56.926 Q 311.299 57.77 313.151 58.45 A 24.073 24.073 0 0 0 320.762 59.887 A 27.464 27.464 0 0 0 321.601 59.9 Q 326.993 59.9 329.835 58.185 A 7.738 7.738 0 0 0 330.051 58.05 Q 332.901 56.2 332.901 53.3 A 7.123 7.123 0 0 0 332.586 51.153 A 6.212 6.212 0 0 0 331.851 49.6 A 6.384 6.384 0 0 0 330.922 48.506 Q 329.908 47.534 328.234 46.581 A 22.3 22.3 0 0 0 328.001 46.45 A 28.462 28.462 0 0 0 326.006 45.457 Q 323.891 44.495 320.902 43.446 A 103.602 103.602 0 0 0 319.901 43.1 A 46.616 46.616 0 0 1 315.503 41.357 Q 313.389 40.383 311.713 39.295 A 19.335 19.335 0 0 1 308.951 37.15 A 11.324 11.324 0 0 1 305.657 31.154 A 16.794 16.794 0 0 1 305.301 27.6 Q 305.301 21.6 310.551 17.45 Q 314.955 13.969 322.209 13.408 A 37.527 37.527 0 0 1 325.101 13.3 A 40.794 40.794 0 0 1 329.546 13.531 Q 331.854 13.784 333.871 14.315 A 25.234 25.234 0 0 1 334.001 14.35 Q 337.901 15.4 341.001 17 L 338.501 24.4 Q 335.801 22.8 332.351 21.8 A 25.024 25.024 0 0 0 327.867 20.953 A 31.837 31.837 0 0 0 324.701 20.8 A 20.632 20.632 0 0 0 321.764 20.995 Q 318.678 21.44 316.801 22.9 A 9.322 9.322 0 0 0 315.443 24.173 Q 314.74 24.992 314.405 25.865 A 4.529 4.529 0 0 0 314.101 27.5 A 4.921 4.921 0 0 0 315.596 31.052 A 7.082 7.082 0 0 0 316.201 31.6 A 9.88 9.88 0 0 0 317.501 32.469 Q 319.774 33.771 324.199 35.234 A 84.459 84.459 0 0 0 324.401 35.3 A 67.753 67.753 0 0 1 329.463 37.198 Q 335.39 39.717 338.201 42.6 Q 342.101 46.6 342.101 52.6 Q 342.101 59.348 336.849 63.355 A 16.618 16.618 0 0 1 336.451 63.65 Q 331.711 67.047 324.262 67.595 A 40.423 40.423 0 0 1 321.301 67.7 Q 315.401 67.7 310.651 66.2 A 30.883 30.883 0 0 1 306.81 64.715 Q 304.83 63.784 303.248 62.636 A 18.229 18.229 0 0 1 302.801 62.3 Z M 379.601 62.3 L 383.401 54.8 A 18.557 18.557 0 0 0 386.544 56.926 Q 388.099 57.77 389.951 58.45 A 24.073 24.073 0 0 0 397.562 59.887 A 27.464 27.464 0 0 0 398.401 59.9 Q 403.793 59.9 406.635 58.185 A 7.738 7.738 0 0 0 406.851 58.05 Q 409.701 56.2 409.701 53.3 A 7.123 7.123 0 0 0 409.386 51.153 A 6.212 6.212 0 0 0 408.651 49.6 A 6.384 6.384 0 0 0 407.722 48.506 Q 406.708 47.534 405.034 46.581 A 22.3 22.3 0 0 0 404.801 46.45 A 28.462 28.462 0 0 0 402.806 45.457 Q 400.691 44.495 397.702 43.446 A 103.602 103.602 0 0 0 396.701 43.1 A 46.616 46.616 0 0 1 392.303 41.357 Q 390.189 40.383 388.513 39.295 A 19.335 19.335 0 0 1 385.751 37.15 A 11.324 11.324 0 0 1 382.457 31.154 A 16.794 16.794 0 0 1 382.101 27.6 Q 382.101 21.6 387.351 17.45 Q 391.755 13.969 399.009 13.408 A 37.527 37.527 0 0 1 401.901 13.3 A 40.794 40.794 0 0 1 406.346 13.531 Q 408.654 13.784 410.671 14.315 A 25.234 25.234 0 0 1 410.801 14.35 Q 414.701 15.4 417.801 17 L 415.301 24.4 Q 412.601 22.8 409.151 21.8 A 25.024 25.024 0 0 0 404.667 20.953 A 31.837 31.837 0 0 0 401.501 20.8 A 20.632 20.632 0 0 0 398.564 20.995 Q 395.478 21.44 393.601 22.9 A 9.322 9.322 0 0 0 392.243 24.173 Q 391.54 24.992 391.205 25.865 A 4.529 4.529 0 0 0 390.901 27.5 A 4.921 4.921 0 0 0 392.396 31.052 A 7.082 7.082 0 0 0 393.001 31.6 A 9.88 9.88 0 0 0 394.301 32.469 Q 396.574 33.771 400.999 35.234 A 84.459 84.459 0 0 0 401.201 35.3 A 67.753 67.753 0 0 1 406.263 37.198 Q 412.19 39.717 415.001 42.6 Q 418.901 46.6 418.901 52.6 Q 418.901 59.348 413.649 63.355 A 16.618 16.618 0 0 1 413.251 63.65 Q 408.511 67.047 401.062 67.595 A 40.423 40.423 0 0 1 398.101 67.7 Q 392.201 67.7 387.451 66.2 A 30.883 30.883 0 0 1 383.61 64.715 Q 381.63 63.784 380.048 62.636 A 18.229 18.229 0 0 1 379.601 62.3 Z M 118.801 88.5 L 109.801 88.5 L 109.801 27.8 A 11.015 11.015 0 0 0 109.674 26.064 Q 109.343 23.998 108.151 22.95 A 5.718 5.718 0 0 0 105.361 21.628 A 7.991 7.991 0 0 0 103.901 21.5 L 105.801 14.5 Q 111.662 14.5 114.723 17.464 A 10.15 10.15 0 0 1 117.301 21.8 Q 118.256 20.367 120.352 18.477 A 38.58 38.58 0 0 1 120.551 18.3 A 18.902 18.902 0 0 1 123.252 16.316 A 25.569 25.569 0 0 1 126.151 14.8 A 16.955 16.955 0 0 1 130.709 13.511 A 21.886 21.886 0 0 1 133.801 13.3 Q 139.801 13.3 145.051 16.45 A 22.329 22.329 0 0 1 152.228 23.417 A 27.464 27.464 0 0 1 153.501 25.55 Q 156.701 31.5 156.701 40 Q 156.701 48.3 153.501 54.55 A 27.846 27.846 0 0 1 149.567 60.382 A 23.029 23.029 0 0 1 145.151 64.25 Q 140.001 67.7 134.001 67.7 Q 129.401 67.7 125.401 65.85 A 30.352 30.352 0 0 1 121.984 64.011 Q 120.192 62.884 118.801 61.6 L 118.801 88.5 Z M 45.601 44.2 L 9.201 44.2 A 24.088 24.088 0 0 0 10.34 49.225 Q 11.676 53.038 14.301 55.6 Q 18.501 59.7 25.401 59.7 Q 29.901 59.7 33.501 58.75 Q 37.101 57.8 40.401 56.3 L 42.501 64 A 40.77 40.77 0 0 1 38.166 65.626 A 51.863 51.863 0 0 1 34.401 66.65 A 38.914 38.914 0 0 1 29.309 67.469 A 52.025 52.025 0 0 1 24.301 67.7 A 28.318 28.318 0 0 1 16.554 66.695 A 21.108 21.108 0 0 1 6.551 60.55 A 23.521 23.521 0 0 1 1.345 51.01 Q 0.001 46.345 0.001 40.5 A 35.359 35.359 0 0 1 0.833 32.678 A 28.84 28.84 0 0 1 2.951 26.55 A 24.642 24.642 0 0 1 7.967 19.468 A 22.887 22.887 0 0 1 11.201 16.85 A 21.048 21.048 0 0 1 21.46 13.378 A 26.205 26.205 0 0 1 23.501 13.3 Q 31.001 13.3 35.951 16.55 Q 40.901 19.8 43.401 25.3 A 28.185 28.185 0 0 1 45.827 35.164 A 33.434 33.434 0 0 1 45.901 37.4 A 75.204 75.204 0 0 1 45.61 44.097 A 69.426 69.426 0 0 1 45.601 44.2 Z M 248.201 44.2 L 211.801 44.2 A 24.088 24.088 0 0 0 212.94 49.225 Q 214.276 53.038 216.901 55.6 Q 221.101 59.7 228.001 59.7 Q 232.501 59.7 236.101 58.75 Q 239.701 57.8 243.001 56.3 L 245.101 64 A 40.77 40.77 0 0 1 240.766 65.626 A 51.863 51.863 0 0 1 237.001 66.65 A 38.914 38.914 0 0 1 231.909 67.469 A 52.025 52.025 0 0 1 226.901 67.7 A 28.318 28.318 0 0 1 219.154 66.695 A 21.108 21.108 0 0 1 209.151 60.55 A 23.521 23.521 0 0 1 203.945 51.01 Q 202.601 46.345 202.601 40.5 A 35.359 35.359 0 0 1 203.433 32.678 A 28.84 28.84 0 0 1 205.551 26.55 A 24.642 24.642 0 0 1 210.567 19.468 A 22.887 22.887 0 0 1 213.801 16.85 A 21.048 21.048 0 0 1 224.06 13.378 A 26.205 26.205 0 0 1 226.101 13.3 Q 233.601 13.3 238.551 16.55 Q 243.501 19.8 246.001 25.3 A 28.185 28.185 0 0 1 248.427 35.164 A 33.434 33.434 0 0 1 248.501 37.4 A 75.204 75.204 0 0 1 248.21 44.097 A 69.426 69.426 0 0 1 248.201 44.2 Z M 553.801 44.2 L 517.401 44.2 A 24.088 24.088 0 0 0 518.54 49.225 Q 519.876 53.038 522.501 55.6 Q 526.701 59.7 533.601 59.7 Q 538.101 59.7 541.701 58.75 Q 545.301 57.8 548.601 56.3 L 550.701 64 A 40.77 40.77 0 0 1 546.366 65.626 A 51.863 51.863 0 0 1 542.601 66.65 A 38.914 38.914 0 0 1 537.509 67.469 A 52.025 52.025 0 0 1 532.501 67.7 A 28.318 28.318 0 0 1 524.754 66.695 A 21.108 21.108 0 0 1 514.751 60.55 A 23.521 23.521 0 0 1 509.545 51.01 Q 508.201 46.345 508.201 40.5 A 35.359 35.359 0 0 1 509.033 32.678 A 28.84 28.84 0 0 1 511.151 26.55 A 24.642 24.642 0 0 1 516.167 19.468 A 22.887 22.887 0 0 1 519.401 16.85 A 21.048 21.048 0 0 1 529.66 13.378 A 26.205 26.205 0 0 1 531.701 13.3 Q 539.201 13.3 544.151 16.55 Q 549.101 19.8 551.601 25.3 A 28.185 28.185 0 0 1 554.027 35.164 A 33.434 33.434 0 0 1 554.101 37.4 A 75.204 75.204 0 0 1 553.81 44.097 A 69.426 69.426 0 0 1 553.801 44.2 Z M 608.201 44.2 L 571.801 44.2 A 24.088 24.088 0 0 0 572.94 49.225 Q 574.276 53.038 576.901 55.6 Q 581.101 59.7 588.001 59.7 Q 592.501 59.7 596.101 58.75 Q 599.701 57.8 603.001 56.3 L 605.101 64 A 40.77 40.77 0 0 1 600.766 65.626 A 51.863 51.863 0 0 1 597.001 66.65 A 38.914 38.914 0 0 1 591.909 67.469 A 52.025 52.025 0 0 1 586.901 67.7 A 28.318 28.318 0 0 1 579.154 66.695 A 21.108 21.108 0 0 1 569.151 60.55 A 23.521 23.521 0 0 1 563.945 51.01 Q 562.601 46.345 562.601 40.5 A 35.359 35.359 0 0 1 563.433 32.678 A 28.84 28.84 0 0 1 565.551 26.55 A 24.642 24.642 0 0 1 570.567 19.468 A 22.887 22.887 0 0 1 573.801 16.85 A 21.048 21.048 0 0 1 584.06 13.378 A 26.205 26.205 0 0 1 586.101 13.3 Q 593.601 13.3 598.551 16.55 Q 603.501 19.8 606.001 25.3 A 28.185 28.185 0 0 1 608.427 35.164 A 33.434 33.434 0 0 1 608.501 37.4 A 75.204 75.204 0 0 1 608.21 44.097 A 69.426 69.426 0 0 1 608.201 44.2 Z M 622.501 48.6 L 622.501 24.2 L 613.501 24.2 L 613.501 16.4 L 622.701 16.4 L 624.601 0 L 631.501 0 L 631.501 16.4 L 645.901 16.4 L 645.901 24.2 L 631.501 24.2 L 631.501 49.3 A 21.559 21.559 0 0 0 631.668 52.096 Q 632.142 55.702 633.951 57.4 Q 636.401 59.7 639.801 59.7 Q 642.301 59.7 644.551 58.9 Q 646.801 58.1 648.701 57 L 651.201 64.2 A 18.546 18.546 0 0 1 649.582 65.056 Q 648.78 65.435 647.835 65.808 A 43.365 43.365 0 0 1 645.801 66.55 Q 642.401 67.7 638.701 67.7 Q 631.201 67.7 626.851 62.75 A 16.116 16.116 0 0 1 623.622 56.848 Q 622.86 54.417 622.616 51.48 A 34.777 34.777 0 0 1 622.501 48.6 Z M 178.201 66.5 L 169.201 66.5 L 169.201 14.5 L 177.901 14.5 L 177.901 25.8 Q 179.201 22.5 181.401 19.65 Q 183.601 16.8 186.901 15.05 A 14.817 14.817 0 0 1 191.58 13.526 A 19.459 19.459 0 0 1 194.601 13.3 Q 196.101 13.3 197.601 13.45 A 18.972 18.972 0 0 1 198.655 13.584 Q 199.155 13.662 199.582 13.762 A 8.817 8.817 0 0 1 200.101 13.9 L 197.401 23.2 A 9.763 9.763 0 0 0 195.255 22.588 Q 194.16 22.4 192.901 22.4 A 12.958 12.958 0 0 0 186.271 24.246 A 15.609 15.609 0 0 0 185.851 24.5 Q 182.523 26.586 180.379 30.942 A 22.927 22.927 0 0 0 180.351 31 Q 178.588 34.607 178.27 39.828 A 39.09 39.09 0 0 0 178.201 42.2 L 178.201 66.5 Z M 118.801 27.9 L 118.801 53.5 Q 121.401 56.2 124.801 57.95 Q 128.201 59.7 132.201 59.7 Q 138.894 59.7 143.117 54.516 A 17.38 17.38 0 0 0 143.251 54.35 A 18.792 18.792 0 0 0 146.744 47.044 Q 147.406 44.355 147.489 41.208 A 34.555 34.555 0 0 0 147.501 40.3 Q 147.501 34.3 145.351 30 Q 143.201 25.7 139.651 23.4 Q 136.101 21.1 131.801 21.1 A 14.741 14.741 0 0 0 126.174 22.163 A 14.054 14.054 0 0 0 124.051 23.25 Q 120.601 25.4 118.801 27.9 Z M 9.101 36.9 L 37.601 36.9 A 24.355 24.355 0 0 0 37.196 32.315 Q 36.7 29.731 35.596 27.707 A 12.422 12.422 0 0 0 33.801 25.2 A 12.488 12.488 0 0 0 26.84 21.424 A 18.395 18.395 0 0 0 23.301 21.1 A 13.58 13.58 0 0 0 18.189 22.035 A 12.524 12.524 0 0 0 13.701 25.15 Q 9.901 29.2 9.101 36.9 Z M 211.701 36.9 L 240.201 36.9 A 24.355 24.355 0 0 0 239.796 32.315 Q 239.3 29.731 238.196 27.707 A 12.422 12.422 0 0 0 236.401 25.2 A 12.488 12.488 0 0 0 229.44 21.424 A 18.395 18.395 0 0 0 225.901 21.1 A 13.58 13.58 0 0 0 220.789 22.035 A 12.524 12.524 0 0 0 216.301 25.15 Q 212.501 29.2 211.701 36.9 Z M 517.301 36.9 L 545.801 36.9 A 24.355 24.355 0 0 0 545.396 32.315 Q 544.9 29.731 543.796 27.707 A 12.422 12.422 0 0 0 542.001 25.2 A 12.488 12.488 0 0 0 535.04 21.424 A 18.395 18.395 0 0 0 531.501 21.1 A 13.58 13.58 0 0 0 526.389 22.035 A 12.524 12.524 0 0 0 521.901 25.15 Q 518.101 29.2 517.301 36.9 Z M 571.701 36.9 L 600.201 36.9 A 24.355 24.355 0 0 0 599.796 32.315 Q 599.3 29.731 598.196 27.707 A 12.422 12.422 0 0 0 596.401 25.2 A 12.488 12.488 0 0 0 589.44 21.424 A 18.395 18.395 0 0 0 585.901 21.1 A 13.58 13.58 0 0 0 580.789 22.035 A 12.524 12.524 0 0 0 576.301 25.15 Q 572.501 29.2 571.701 36.9 Z" vector-effect="non-scaling-stroke"/></g></svg>