<svg width="621.3" height="84" viewBox="0 0 621.3 84" xmlns="http://www.w3.org/2000/svg"><g id="svgGroup" stroke-linecap="round" fill-rule="evenodd" font-size="9pt" stroke="#ffffff" stroke-width="0" fill="#ffffff" style="stroke:#ffffff;stroke-width:0;fill:#ffffff"><path d="M 445.6 17.9 L 427.6 64 L 425.9 64 L 410.1 14 L 412.4 14 L 426.9 60.2 L 444.7 14 L 446.4 14 L 464.3 60.2 L 478.7 14 L 481 14 L 465.3 64 L 463.5 64 L 445.6 17.9 Z M 246 51.5 L 248 50.9 A 18.993 18.993 0 0 0 248.909 54.21 A 14.381 14.381 0 0 0 250.55 57.35 A 10.999 10.999 0 0 0 254.609 60.848 A 13.68 13.68 0 0 0 255.7 61.35 Q 258.42 62.463 262.227 62.658 A 32.624 32.624 0 0 0 263.9 62.7 Q 268.607 62.7 271.893 61.564 A 12.237 12.237 0 0 0 275.7 59.5 A 10.665 10.665 0 0 0 278.564 55.978 A 10.419 10.419 0 0 0 279.6 51.3 Q 279.6 48.215 278.387 46.209 A 6.605 6.605 0 0 0 277.35 44.9 Q 275.1 42.7 271.55 41.55 Q 268 40.4 264.2 39.6 Q 262 39.1 259 38.4 Q 256 37.7 253.2 36.35 Q 250.4 35 248.5 32.65 A 8.151 8.151 0 0 1 246.964 29.516 Q 246.657 28.326 246.609 26.926 A 15.374 15.374 0 0 1 246.6 26.4 Q 246.6 22.5 248.8 19.5 Q 251 16.5 254.85 14.9 A 20.463 20.463 0 0 1 259.757 13.574 A 27.213 27.213 0 0 1 263.7 13.3 A 22.788 22.788 0 0 1 270.039 14.154 A 19.645 19.645 0 0 1 274.4 16 A 12.506 12.506 0 0 1 279.516 21.659 A 18.262 18.262 0 0 1 280.7 25 L 278.9 25.5 Q 277.926 22.008 276.061 19.901 A 9.525 9.525 0 0 0 275.15 19 A 14.113 14.113 0 0 0 271.699 16.776 A 12.602 12.602 0 0 0 269.6 16.05 A 25.041 25.041 0 0 0 265.57 15.373 A 21.678 21.678 0 0 0 263.8 15.3 A 24.898 24.898 0 0 0 259.314 15.681 Q 256.709 16.159 254.621 17.235 A 13.758 13.758 0 0 0 252.95 18.25 Q 248.8 21.2 248.8 26.3 A 10.486 10.486 0 0 0 249.011 28.463 Q 249.308 29.871 250.022 30.958 A 6.419 6.419 0 0 0 250.3 31.35 A 10.63 10.63 0 0 0 253.86 34.303 A 12.353 12.353 0 0 0 254.15 34.45 A 23.203 23.203 0 0 0 257.929 35.894 A 26.922 26.922 0 0 0 259.3 36.25 Q 262.1 36.9 264.7 37.4 Q 267.6 38 270.6 38.9 A 25.279 25.279 0 0 1 275.83 41.115 A 23.552 23.552 0 0 1 276.15 41.3 Q 278.7 42.8 280.25 45.25 Q 281.712 47.56 281.795 50.981 A 17.162 17.162 0 0 1 281.8 51.4 A 13.387 13.387 0 0 1 281.301 55.131 A 10.967 10.967 0 0 1 279.6 58.6 Q 277.4 61.6 273.35 63.15 Q 269.3 64.7 263.8 64.7 Q 258.222 64.7 254.291 62.938 A 15.062 15.062 0 0 1 251.9 61.6 A 12.82 12.82 0 0 1 247.733 56.712 Q 246.805 54.877 246.241 52.583 A 25.4 25.4 0 0 1 246 51.5 Z M 292.1 51.5 L 294.1 50.9 A 18.993 18.993 0 0 0 295.009 54.21 A 14.381 14.381 0 0 0 296.65 57.35 A 10.999 10.999 0 0 0 300.709 60.848 A 13.68 13.68 0 0 0 301.8 61.35 Q 304.52 62.463 308.327 62.658 A 32.624 32.624 0 0 0 310 62.7 Q 314.707 62.7 317.993 61.564 A 12.237 12.237 0 0 0 321.8 59.5 A 10.665 10.665 0 0 0 324.664 55.978 A 10.419 10.419 0 0 0 325.7 51.3 Q 325.7 48.215 324.487 46.209 A 6.605 6.605 0 0 0 323.45 44.9 Q 321.2 42.7 317.65 41.55 Q 314.1 40.4 310.3 39.6 Q 308.1 39.1 305.1 38.4 Q 302.1 37.7 299.3 36.35 Q 296.5 35 294.6 32.65 A 8.151 8.151 0 0 1 293.064 29.516 Q 292.757 28.326 292.709 26.926 A 15.374 15.374 0 0 1 292.7 26.4 Q 292.7 22.5 294.9 19.5 Q 297.1 16.5 300.95 14.9 A 20.463 20.463 0 0 1 305.857 13.574 A 27.213 27.213 0 0 1 309.8 13.3 A 22.788 22.788 0 0 1 316.139 14.154 A 19.645 19.645 0 0 1 320.5 16 A 12.506 12.506 0 0 1 325.616 21.659 A 18.262 18.262 0 0 1 326.8 25 L 325 25.5 Q 324.026 22.008 322.161 19.901 A 9.525 9.525 0 0 0 321.25 19 A 14.113 14.113 0 0 0 317.799 16.776 A 12.602 12.602 0 0 0 315.7 16.05 A 25.041 25.041 0 0 0 311.67 15.373 A 21.678 21.678 0 0 0 309.9 15.3 A 24.898 24.898 0 0 0 305.414 15.681 Q 302.809 16.159 300.721 17.235 A 13.758 13.758 0 0 0 299.05 18.25 Q 294.9 21.2 294.9 26.3 A 10.486 10.486 0 0 0 295.111 28.463 Q 295.408 29.871 296.122 30.958 A 6.419 6.419 0 0 0 296.4 31.35 A 10.63 10.63 0 0 0 299.96 34.303 A 12.353 12.353 0 0 0 300.25 34.45 A 23.203 23.203 0 0 0 304.029 35.894 A 26.922 26.922 0 0 0 305.4 36.25 Q 308.2 36.9 310.8 37.4 Q 313.7 38 316.7 38.9 A 25.279 25.279 0 0 1 321.93 41.115 A 23.552 23.552 0 0 1 322.25 41.3 Q 324.8 42.8 326.35 45.25 Q 327.812 47.56 327.895 50.981 A 17.162 17.162 0 0 1 327.9 51.4 A 13.387 13.387 0 0 1 327.401 55.131 A 10.967 10.967 0 0 1 325.7 58.6 Q 323.5 61.6 319.45 63.15 Q 315.4 64.7 309.9 64.7 Q 304.322 64.7 300.391 62.938 A 15.062 15.062 0 0 1 298 61.6 A 12.82 12.82 0 0 1 293.833 56.712 Q 292.905 54.877 292.341 52.583 A 25.4 25.4 0 0 1 292.1 51.5 Z M 366.2 51.5 L 368.2 50.9 A 18.993 18.993 0 0 0 369.109 54.21 A 14.381 14.381 0 0 0 370.75 57.35 A 10.999 10.999 0 0 0 374.809 60.848 A 13.68 13.68 0 0 0 375.9 61.35 Q 378.62 62.463 382.427 62.658 A 32.624 32.624 0 0 0 384.1 62.7 Q 388.807 62.7 392.093 61.564 A 12.237 12.237 0 0 0 395.9 59.5 A 10.665 10.665 0 0 0 398.764 55.978 A 10.419 10.419 0 0 0 399.8 51.3 Q 399.8 48.215 398.587 46.209 A 6.605 6.605 0 0 0 397.55 44.9 Q 395.3 42.7 391.75 41.55 Q 388.2 40.4 384.4 39.6 Q 382.2 39.1 379.2 38.4 Q 376.2 37.7 373.4 36.35 Q 370.6 35 368.7 32.65 A 8.151 8.151 0 0 1 367.164 29.516 Q 366.857 28.326 366.809 26.926 A 15.374 15.374 0 0 1 366.8 26.4 Q 366.8 22.5 369 19.5 Q 371.2 16.5 375.05 14.9 A 20.463 20.463 0 0 1 379.957 13.574 A 27.213 27.213 0 0 1 383.9 13.3 A 22.788 22.788 0 0 1 390.239 14.154 A 19.645 19.645 0 0 1 394.6 16 A 12.506 12.506 0 0 1 399.716 21.659 A 18.262 18.262 0 0 1 400.9 25 L 399.1 25.5 Q 398.126 22.008 396.261 19.901 A 9.525 9.525 0 0 0 395.35 19 A 14.113 14.113 0 0 0 391.899 16.776 A 12.602 12.602 0 0 0 389.8 16.05 A 25.041 25.041 0 0 0 385.77 15.373 A 21.678 21.678 0 0 0 384 15.3 A 24.898 24.898 0 0 0 379.514 15.681 Q 376.909 16.159 374.821 17.235 A 13.758 13.758 0 0 0 373.15 18.25 Q 369 21.2 369 26.3 A 10.486 10.486 0 0 0 369.211 28.463 Q 369.508 29.871 370.222 30.958 A 6.419 6.419 0 0 0 370.5 31.35 A 10.63 10.63 0 0 0 374.06 34.303 A 12.353 12.353 0 0 0 374.35 34.45 A 23.203 23.203 0 0 0 378.129 35.894 A 26.922 26.922 0 0 0 379.5 36.25 Q 382.3 36.9 384.9 37.4 Q 387.8 38 390.8 38.9 A 25.279 25.279 0 0 1 396.03 41.115 A 23.552 23.552 0 0 1 396.35 41.3 Q 398.9 42.8 400.45 45.25 Q 401.912 47.56 401.995 50.981 A 17.162 17.162 0 0 1 402 51.4 A 13.387 13.387 0 0 1 401.501 55.131 A 10.967 10.967 0 0 1 399.8 58.6 Q 397.6 61.6 393.55 63.15 Q 389.5 64.7 384 64.7 Q 378.422 64.7 374.491 62.938 A 15.062 15.062 0 0 1 372.1 61.6 A 12.82 12.82 0 0 1 367.933 56.712 Q 367.005 54.877 366.441 52.583 A 25.4 25.4 0 0 1 366.2 51.5 Z M 102.6 49.3 L 102.7 49.1 L 102.7 84 L 100.5 84 L 100.5 14 L 102.7 14 L 102.7 28.3 A 20.65 20.65 0 0 1 109.126 18.152 A 25.206 25.206 0 0 1 109.65 17.7 A 18.097 18.097 0 0 1 117.044 14.04 Q 119.752 13.369 122.937 13.307 A 33.629 33.629 0 0 1 123.6 13.3 Q 130.6 13.3 135.85 16.45 A 21.293 21.293 0 0 1 143.978 25.305 A 25.296 25.296 0 0 1 144 25.35 A 26.234 26.234 0 0 1 146.345 32.499 A 36.241 36.241 0 0 1 146.9 39 A 35.374 35.374 0 0 1 146.305 45.648 A 26.153 26.153 0 0 1 144 52.55 A 22.221 22.221 0 0 1 138.501 59.62 A 21.399 21.399 0 0 1 135.9 61.5 A 21.463 21.463 0 0 1 127.496 64.447 A 27.63 27.63 0 0 1 123.7 64.7 A 26.554 26.554 0 0 1 117.533 64.021 A 18.84 18.84 0 0 1 109.8 60.25 Q 104.4 55.8 102.6 49.3 Z M 45.1 39 L 2.2 39 Q 2.3 46 4.95 51.35 A 21.554 21.554 0 0 0 9.044 57.12 A 19.579 19.579 0 0 0 12.25 59.7 A 18.852 18.852 0 0 0 21.422 62.653 A 23.041 23.041 0 0 0 22.9 62.7 A 25.755 25.755 0 0 0 29.2 61.961 A 20.473 20.473 0 0 0 35.05 59.5 A 18.677 18.677 0 0 0 42.596 50.412 A 22.115 22.115 0 0 0 42.6 50.4 L 44.4 51.1 Q 41.9 57.6 36.25 61.15 Q 30.6 64.7 22.9 64.7 A 23.713 23.713 0 0 1 16.141 63.769 A 20.192 20.192 0 0 1 10.95 61.4 A 22.072 22.072 0 0 1 3.464 53.283 A 26.549 26.549 0 0 1 2.9 52.2 A 27.862 27.862 0 0 1 0.409 44.086 A 36.794 36.794 0 0 1 0 38.5 Q 0 31.1 2.95 25.4 A 22.827 22.827 0 0 1 8.399 18.437 A 21.776 21.776 0 0 1 11.05 16.5 Q 16.2 13.3 22.9 13.3 A 24.524 24.524 0 0 1 29.614 14.189 A 20.975 20.975 0 0 1 34.3 16.15 Q 39.3 19 42.2 23.85 A 20.585 20.585 0 0 1 45.03 32.995 A 25.24 25.24 0 0 1 45.1 34.9 Q 45.1 35.526 45.14 36.472 A 72 72 0 0 0 45.15 36.7 A 16.395 16.395 0 0 1 45.167 37.444 Q 45.167 38.2 45.1 39 Z M 235.7 39 L 192.8 39 Q 192.9 46 195.55 51.35 A 21.554 21.554 0 0 0 199.644 57.12 A 19.579 19.579 0 0 0 202.85 59.7 A 18.852 18.852 0 0 0 212.022 62.653 A 23.041 23.041 0 0 0 213.5 62.7 A 25.755 25.755 0 0 0 219.8 61.961 A 20.473 20.473 0 0 0 225.65 59.5 A 18.677 18.677 0 0 0 233.196 50.412 A 22.115 22.115 0 0 0 233.2 50.4 L 235 51.1 Q 232.5 57.6 226.85 61.15 Q 221.2 64.7 213.5 64.7 A 23.713 23.713 0 0 1 206.741 63.769 A 20.192 20.192 0 0 1 201.55 61.4 A 22.072 22.072 0 0 1 194.064 53.283 A 26.549 26.549 0 0 1 193.5 52.2 A 27.862 27.862 0 0 1 191.009 44.086 A 36.794 36.794 0 0 1 190.6 38.5 Q 190.6 31.1 193.55 25.4 A 22.827 22.827 0 0 1 198.999 18.437 A 21.776 21.776 0 0 1 201.65 16.5 Q 206.8 13.3 213.5 13.3 A 24.524 24.524 0 0 1 220.214 14.189 A 20.975 20.975 0 0 1 224.9 16.15 Q 229.9 19 232.8 23.85 A 20.585 20.585 0 0 1 235.63 32.995 A 25.24 25.24 0 0 1 235.7 34.9 Q 235.7 35.526 235.74 36.472 A 72 72 0 0 0 235.75 36.7 A 16.395 16.395 0 0 1 235.767 37.444 Q 235.767 38.2 235.7 39 Z M 533 39 L 490.1 39 Q 490.2 46 492.85 51.35 A 21.554 21.554 0 0 0 496.944 57.12 A 19.579 19.579 0 0 0 500.15 59.7 A 18.852 18.852 0 0 0 509.322 62.653 A 23.041 23.041 0 0 0 510.8 62.7 A 25.755 25.755 0 0 0 517.1 61.961 A 20.473 20.473 0 0 0 522.95 59.5 A 18.677 18.677 0 0 0 530.496 50.412 A 22.115 22.115 0 0 0 530.5 50.4 L 532.3 51.1 Q 529.8 57.6 524.15 61.15 Q 518.5 64.7 510.8 64.7 A 23.713 23.713 0 0 1 504.041 63.769 A 20.192 20.192 0 0 1 498.85 61.4 A 22.072 22.072 0 0 1 491.364 53.283 A 26.549 26.549 0 0 1 490.8 52.2 A 27.862 27.862 0 0 1 488.309 44.086 A 36.794 36.794 0 0 1 487.9 38.5 Q 487.9 31.1 490.85 25.4 A 22.827 22.827 0 0 1 496.299 18.437 A 21.776 21.776 0 0 1 498.95 16.5 Q 504.1 13.3 510.8 13.3 A 24.524 24.524 0 0 1 517.514 14.189 A 20.975 20.975 0 0 1 522.2 16.15 Q 527.2 19 530.1 23.85 A 20.585 20.585 0 0 1 532.93 32.995 A 25.24 25.24 0 0 1 533 34.9 Q 533 35.526 533.04 36.472 A 72 72 0 0 0 533.05 36.7 A 16.395 16.395 0 0 1 533.067 37.444 Q 533.067 38.2 533 39 Z M 588.4 39 L 545.5 39 Q 545.6 46 548.25 51.35 A 21.554 21.554 0 0 0 552.344 57.12 A 19.579 19.579 0 0 0 555.55 59.7 A 18.852 18.852 0 0 0 564.722 62.653 A 23.041 23.041 0 0 0 566.2 62.7 A 25.755 25.755 0 0 0 572.5 61.961 A 20.473 20.473 0 0 0 578.35 59.5 A 18.677 18.677 0 0 0 585.896 50.412 A 22.115 22.115 0 0 0 585.9 50.4 L 587.7 51.1 Q 585.2 57.6 579.55 61.15 Q 573.9 64.7 566.2 64.7 A 23.713 23.713 0 0 1 559.441 63.769 A 20.192 20.192 0 0 1 554.25 61.4 A 22.072 22.072 0 0 1 546.764 53.283 A 26.549 26.549 0 0 1 546.2 52.2 A 27.862 27.862 0 0 1 543.709 44.086 A 36.794 36.794 0 0 1 543.3 38.5 Q 543.3 31.1 546.25 25.4 A 22.827 22.827 0 0 1 551.699 18.437 A 21.776 21.776 0 0 1 554.35 16.5 Q 559.5 13.3 566.2 13.3 A 24.524 24.524 0 0 1 572.914 14.189 A 20.975 20.975 0 0 1 577.6 16.15 Q 582.6 19 585.5 23.85 A 20.585 20.585 0 0 1 588.33 32.995 A 25.24 25.24 0 0 1 588.4 34.9 Q 588.4 35.526 588.44 36.472 A 72 72 0 0 0 588.45 36.7 A 16.395 16.395 0 0 1 588.467 37.444 Q 588.467 38.2 588.4 39 Z M 68.9 38.7 L 51.7 14 L 54.2 14 L 70.1 37.2 L 86 14 L 88.5 14 L 71.3 38.7 L 88.5 64 L 86 64 L 70.1 40.3 L 54.2 64 L 51.7 64 L 68.9 38.7 Z M 595.4 14 L 603.6 14 L 603.6 0 L 605.8 0 L 605.8 14 L 621.3 14 L 621.3 16 L 605.8 16 L 605.8 50.6 Q 605.8 54.7 608.05 57.6 Q 610.3 60.5 613.85 61.7 A 12.337 12.337 0 0 0 617.827 62.355 Q 619.528 62.355 621.3 61.9 L 621.3 63.7 Q 618.1 64.6 614.95 64.1 Q 611.8 63.6 609.25 61.8 Q 606.7 60 605.15 57.15 A 12.732 12.732 0 0 1 603.723 52.614 A 16.109 16.109 0 0 1 603.6 50.6 L 603.6 16 L 595.4 16 L 595.4 14 Z M 160.6 64 L 160.6 14 L 162.8 14 L 162.8 26 Q 164 22.2 166.95 19.1 A 18.058 18.058 0 0 1 174.084 14.524 A 20.905 20.905 0 0 1 174.15 14.5 A 16.066 16.066 0 0 1 178.857 13.616 Q 180.619 13.543 182.521 13.807 A 24.56 24.56 0 0 1 183.7 14 L 183.7 16.1 A 18.567 18.567 0 0 0 180.826 15.672 Q 178.03 15.484 175.5 16.25 Q 171.7 17.4 168.85 20.2 A 18.578 18.578 0 0 0 165.219 25.279 A 22.526 22.526 0 0 0 164.4 27.15 A 24.134 24.134 0 0 0 162.877 34.092 A 28.595 28.595 0 0 0 162.8 36.2 L 162.8 64 L 160.6 64 Z M 144.7 39 Q 144.7 28.1 138.95 21.7 A 18.991 18.991 0 0 0 126.242 15.428 A 26.521 26.521 0 0 0 123.6 15.3 A 22.945 22.945 0 0 0 117.805 16.002 A 18.407 18.407 0 0 0 112.5 18.3 A 19.595 19.595 0 0 0 105.494 26.154 A 23.466 23.466 0 0 0 105.25 26.65 Q 102.7 32 102.7 39 A 32.014 32.014 0 0 0 103.33 45.491 A 24.867 24.867 0 0 0 105.3 51.35 Q 107.9 56.7 112.6 59.7 A 18.981 18.981 0 0 0 120.235 62.463 A 24.555 24.555 0 0 0 123.7 62.7 A 23.259 23.259 0 0 0 130.605 61.723 A 18.3 18.3 0 0 0 139 56.3 Q 144.411 50.225 144.686 40.095 A 40.402 40.402 0 0 0 144.7 39 Z M 2.2 37 L 42.9 37 A 30.655 30.655 0 0 0 42.916 36.043 Q 42.916 30.23 40.65 25.7 Q 38.2 20.8 33.65 18.05 A 18.903 18.903 0 0 0 26.659 15.575 A 24.797 24.797 0 0 0 22.9 15.3 A 20.57 20.57 0 0 0 16.119 16.394 A 18.748 18.748 0 0 0 12.5 18.1 Q 7.9 20.9 5.15 25.8 A 23.021 23.021 0 0 0 2.46 33.937 A 28.436 28.436 0 0 0 2.2 37 Z M 192.8 37 L 233.5 37 A 30.655 30.655 0 0 0 233.516 36.043 Q 233.516 30.23 231.25 25.7 Q 228.8 20.8 224.25 18.05 A 18.903 18.903 0 0 0 217.259 15.575 A 24.797 24.797 0 0 0 213.5 15.3 A 20.57 20.57 0 0 0 206.719 16.394 A 18.748 18.748 0 0 0 203.1 18.1 Q 198.5 20.9 195.75 25.8 A 23.021 23.021 0 0 0 193.06 33.937 A 28.436 28.436 0 0 0 192.8 37 Z M 490.1 37 L 530.8 37 A 30.655 30.655 0 0 0 530.816 36.043 Q 530.816 30.23 528.55 25.7 Q 526.1 20.8 521.55 18.05 A 18.903 18.903 0 0 0 514.559 15.575 A 24.797 24.797 0 0 0 510.8 15.3 A 20.57 20.57 0 0 0 504.019 16.394 A 18.748 18.748 0 0 0 500.4 18.1 Q 495.8 20.9 493.05 25.8 A 23.021 23.021 0 0 0 490.36 33.937 A 28.436 28.436 0 0 0 490.1 37 Z M 545.5 37 L 586.2 37 A 30.655 30.655 0 0 0 586.216 36.043 Q 586.216 30.23 583.95 25.7 Q 581.5 20.8 576.95 18.05 A 18.903 18.903 0 0 0 569.959 15.575 A 24.797 24.797 0 0 0 566.2 15.3 A 20.57 20.57 0 0 0 559.419 16.394 A 18.748 18.748 0 0 0 555.8 18.1 Q 551.2 20.9 548.45 25.8 A 23.021 23.021 0 0 0 545.76 33.937 A 28.436 28.436 0 0 0 545.5 37 Z" vector-effect="non-scaling-stroke"/></g></svg>