<svg width="98.301" height="72.401" viewBox="0 0 98.301 72.401" xmlns="http://www.w3.org/2000/svg"><g id="svgGroup" stroke-linecap="round" fill-rule="evenodd" font-size="9pt" stroke="#ffffff" stroke-width="0" fill="#ffffff" style="stroke:#ffffff;stroke-width:0;fill:#ffffff"><path d="M 42 71.2 L 0 71.2 L 0 1.2 L 42 1.2 L 42 9.4 L 9.5 9.4 L 9.5 30.7 L 37.5 30.7 L 37.5 38.7 L 9.5 38.7 L 9.5 63 L 42 63 L 42 71.2 Z M 49.5 65.3 L 54.3 57.3 Q 57.9 60.3 62.4 62.2 A 23.348 23.348 0 0 0 67.77 63.71 A 32.118 32.118 0 0 0 72.9 64.1 A 27.981 27.981 0 0 0 77.447 63.754 Q 79.87 63.354 81.831 62.494 A 13.701 13.701 0 0 0 84.3 61.1 Q 88.348 58.209 88.495 53.366 A 12.116 12.116 0 0 0 88.5 53 A 11.94 11.94 0 0 0 88.163 50.107 A 9.816 9.816 0 0 0 87.3 47.85 A 8.097 8.097 0 0 0 86.1 46.194 Q 84.83 44.813 82.684 43.471 A 25.81 25.81 0 0 0 82.65 43.45 Q 79.534 41.508 73.765 39.28 A 118.584 118.584 0 0 0 72.5 38.8 Q 65.3 36 61 33.15 A 21.931 21.931 0 0 1 57.911 30.703 Q 56.194 29.053 55.138 27.188 A 13.303 13.303 0 0 1 54.85 26.65 Q 53 23 53 18 Q 53 13 55.75 8.95 Q 58.5 4.9 63.85 2.45 A 25.558 25.558 0 0 1 69.75 0.615 Q 72.993 0 76.8 0 Q 83 0 87.95 1.25 Q 92.9 2.5 97.6 4.8 L 94.1 12.9 A 31.496 31.496 0 0 0 89.974 10.881 A 41.686 41.686 0 0 0 86.15 9.55 Q 81.6 8.2 76.6 8.2 A 27.187 27.187 0 0 0 72.57 8.48 Q 70.438 8.8 68.7 9.487 A 12.616 12.616 0 0 0 66.2 10.8 A 9.902 9.902 0 0 0 64.037 12.765 A 7.359 7.359 0 0 0 62.4 17.5 A 10.464 10.464 0 0 0 62.692 20.022 A 8.562 8.562 0 0 0 63.5 22.1 Q 64.556 24.019 67.591 25.847 A 23.503 23.503 0 0 0 67.85 26 A 33.003 33.003 0 0 0 70.066 27.172 Q 72.335 28.275 75.546 29.523 A 130.016 130.016 0 0 0 77.6 30.3 A 81.228 81.228 0 0 1 82.578 32.329 Q 86.964 34.3 89.95 36.4 A 26.044 26.044 0 0 1 92.99 38.878 Q 95.213 41.006 96.4 43.35 A 17.579 17.579 0 0 1 98.141 49.213 A 22.155 22.155 0 0 1 98.3 51.9 A 21.71 21.71 0 0 1 97.633 57.401 A 17.105 17.105 0 0 1 95.05 63 Q 91.8 67.6 86.05 70 A 30.521 30.521 0 0 1 78.64 72.004 A 40.027 40.027 0 0 1 72.9 72.4 Q 65.6 72.4 59.6 70.45 A 38.206 38.206 0 0 1 54.233 68.268 A 28.433 28.433 0 0 1 49.5 65.3 Z" vector-effect="non-scaling-stroke"/></g></svg>