<svg width="67.401" height="72.001" viewBox="0 0 67.401 72.001" xmlns="http://www.w3.org/2000/svg"><g id="svgGroup" stroke-linecap="round" fill-rule="evenodd" font-size="9pt" stroke="#000" stroke-width="0" fill="#000" style="stroke:#000;stroke-width:0;fill:#000"><path d="M 34.6 54.401 L 34.6 50.401 L 45 50.401 L 45 55.201 Q 45 61.207 49.447 61.908 A 8.05 8.05 0 0 0 50.7 62.001 Q 53.5 62.001 54.95 60.351 Q 56.338 58.771 56.397 55.314 A 18.22 18.22 0 0 0 56.4 55.001 A 16.438 16.438 0 0 0 55.868 50.742 A 13.651 13.651 0 0 0 54.4 47.251 A 19.081 19.081 0 0 0 52.842 45.055 Q 50.734 42.45 47 39.201 A 72.472 72.472 0 0 1 43.15 35.563 Q 39.482 31.814 37.625 28.573 A 20.769 20.769 0 0 1 37.5 28.351 A 21.525 21.525 0 0 1 34.88 19.461 A 26.199 26.199 0 0 1 34.8 17.401 A 26.379 26.379 0 0 1 35.252 12.358 Q 35.827 9.407 37.134 7.11 A 13.862 13.862 0 0 1 39 4.551 A 13.5 13.5 0 0 1 45.53 0.695 Q 47.717 0.098 50.333 0.014 A 27.056 27.056 0 0 1 51.2 0.001 Q 59.1 0.001 63.15 4.551 Q 67.2 9.101 67.2 17.601 L 67.2 20.501 L 56.8 20.501 L 56.8 16.901 Q 56.8 13.488 55.542 11.827 A 4.111 4.111 0 0 0 55.4 11.651 A 4.506 4.506 0 0 0 52.936 10.179 A 7.037 7.037 0 0 0 51.3 10.001 Q 45.8 10.001 45.8 16.701 Q 45.8 20.501 47.85 23.801 Q 49.668 26.728 54.122 30.756 A 82.526 82.526 0 0 0 55.3 31.801 Q 62.2 37.801 64.8 42.701 Q 67.4 47.601 67.4 54.201 Q 67.4 60.335 65.238 64.434 A 13.911 13.911 0 0 1 63.15 67.401 A 13.66 13.66 0 0 1 56.554 71.295 Q 54.335 71.901 51.68 71.987 A 27.431 27.431 0 0 1 50.8 72.001 A 22.4 22.4 0 0 1 46.075 71.534 Q 41.487 70.543 38.7 67.451 Q 35.241 63.612 34.7 56.96 A 31.618 31.618 0 0 1 34.6 54.401 Z M 0 71.001 L 0 1.001 L 30 1.001 L 30 11.001 L 11 11.001 L 11 29.501 L 26.1 29.501 L 26.1 39.501 L 11 39.501 L 11 61.001 L 30 61.001 L 30 71.001 L 0 71.001 Z"/></g></svg>