<svg width="479.5" height="72.001" viewBox="0 0 479.5 72.001" xmlns="http://www.w3.org/2000/svg"><g id="svgGroup" stroke-linecap="round" fill-rule="evenodd" font-size="9pt" stroke="#fff" stroke-width="0" fill="#fff" style="stroke:#fff;stroke-width:0;fill:#fff"><path d="M 324.6 71.001 L 317.5 1.001 L 328.1 1.001 L 333 54.801 L 333.2 54.801 L 338.4 1.001 L 350.4 1.001 L 355.6 54.801 L 355.8 54.801 L 360.7 1.001 L 370.2 1.001 L 363.1 71.001 L 349.4 71.001 L 344.4 23.801 L 344.2 23.801 L 339.2 71.001 L 324.6 71.001 Z M 33.5 71.001 L 46.2 35.201 L 34.1 1.001 L 45.7 1.001 L 53.1 23.601 L 53.3 23.601 L 60.9 1.001 L 71.3 1.001 L 59.2 35.201 L 71.9 71.001 L 60.3 71.001 L 52.3 46.601 L 52.1 46.601 L 43.9 71.001 L 33.5 71.001 Z M 190.6 54.401 L 190.6 50.401 L 201 50.401 L 201 55.201 Q 201 61.207 205.447 61.908 A 8.05 8.05 0 0 0 206.7 62.001 Q 209.5 62.001 210.95 60.351 Q 212.338 58.771 212.397 55.314 A 18.22 18.22 0 0 0 212.4 55.001 A 16.438 16.438 0 0 0 211.868 50.742 A 13.651 13.651 0 0 0 210.4 47.251 A 19.081 19.081 0 0 0 208.842 45.055 Q 206.734 42.45 203 39.201 A 72.472 72.472 0 0 1 199.15 35.563 Q 195.482 31.814 193.625 28.573 A 20.769 20.769 0 0 1 193.5 28.351 A 21.525 21.525 0 0 1 190.88 19.461 A 26.199 26.199 0 0 1 190.8 17.401 A 26.379 26.379 0 0 1 191.252 12.358 Q 191.827 9.407 193.134 7.11 A 13.862 13.862 0 0 1 195 4.551 A 13.5 13.5 0 0 1 201.53 0.695 Q 203.717 0.098 206.333 0.014 A 27.056 27.056 0 0 1 207.2 0.001 Q 215.1 0.001 219.15 4.551 Q 223.2 9.101 223.2 17.601 L 223.2 20.501 L 212.8 20.501 L 212.8 16.901 Q 212.8 13.488 211.542 11.827 A 4.111 4.111 0 0 0 211.4 11.651 A 4.506 4.506 0 0 0 208.936 10.179 A 7.037 7.037 0 0 0 207.3 10.001 Q 201.8 10.001 201.8 16.701 Q 201.8 20.501 203.85 23.801 Q 205.668 26.728 210.122 30.756 A 82.526 82.526 0 0 0 211.3 31.801 Q 218.2 37.801 220.8 42.701 Q 223.4 47.601 223.4 54.201 Q 223.4 60.335 221.238 64.434 A 13.911 13.911 0 0 1 219.15 67.401 A 13.66 13.66 0 0 1 212.554 71.295 Q 210.335 71.901 207.68 71.987 A 27.431 27.431 0 0 1 206.8 72.001 A 22.4 22.4 0 0 1 202.075 71.534 Q 197.487 70.543 194.7 67.451 Q 191.241 63.612 190.7 56.96 A 31.618 31.618 0 0 1 190.6 54.401 Z M 227.8 54.401 L 227.8 50.401 L 238.2 50.401 L 238.2 55.201 Q 238.2 61.207 242.647 61.908 A 8.05 8.05 0 0 0 243.9 62.001 Q 246.7 62.001 248.15 60.351 Q 249.538 58.771 249.597 55.314 A 18.22 18.22 0 0 0 249.6 55.001 A 16.438 16.438 0 0 0 249.068 50.742 A 13.651 13.651 0 0 0 247.6 47.251 A 19.081 19.081 0 0 0 246.042 45.055 Q 243.934 42.45 240.2 39.201 A 72.472 72.472 0 0 1 236.35 35.563 Q 232.682 31.814 230.825 28.573 A 20.769 20.769 0 0 1 230.7 28.351 A 21.525 21.525 0 0 1 228.08 19.461 A 26.199 26.199 0 0 1 228 17.401 A 26.379 26.379 0 0 1 228.452 12.358 Q 229.027 9.407 230.334 7.11 A 13.862 13.862 0 0 1 232.2 4.551 A 13.5 13.5 0 0 1 238.73 0.695 Q 240.917 0.098 243.533 0.014 A 27.056 27.056 0 0 1 244.4 0.001 Q 252.3 0.001 256.35 4.551 Q 260.4 9.101 260.4 17.601 L 260.4 20.501 L 250 20.501 L 250 16.901 Q 250 13.488 248.742 11.827 A 4.111 4.111 0 0 0 248.6 11.651 A 4.506 4.506 0 0 0 246.136 10.179 A 7.037 7.037 0 0 0 244.5 10.001 Q 239 10.001 239 16.701 Q 239 20.501 241.05 23.801 Q 242.868 26.728 247.322 30.756 A 82.526 82.526 0 0 0 248.5 31.801 Q 255.4 37.801 258 42.701 Q 260.6 47.601 260.6 54.201 Q 260.6 60.335 258.438 64.434 A 13.911 13.911 0 0 1 256.35 67.401 A 13.66 13.66 0 0 1 249.754 71.295 Q 247.535 71.901 244.88 71.987 A 27.431 27.431 0 0 1 244 72.001 A 22.4 22.4 0 0 1 239.275 71.534 Q 234.687 70.543 231.9 67.451 Q 228.441 63.612 227.9 56.96 A 31.618 31.618 0 0 1 227.8 54.401 Z M 281 54.401 L 281 50.401 L 291.4 50.401 L 291.4 55.201 Q 291.4 61.207 295.847 61.908 A 8.05 8.05 0 0 0 297.1 62.001 Q 299.9 62.001 301.35 60.351 Q 302.738 58.771 302.797 55.314 A 18.22 18.22 0 0 0 302.8 55.001 A 16.438 16.438 0 0 0 302.268 50.742 A 13.651 13.651 0 0 0 300.8 47.251 A 19.081 19.081 0 0 0 299.242 45.055 Q 297.134 42.45 293.4 39.201 A 72.472 72.472 0 0 1 289.55 35.563 Q 285.882 31.814 284.025 28.573 A 20.769 20.769 0 0 1 283.9 28.351 A 21.525 21.525 0 0 1 281.28 19.461 A 26.199 26.199 0 0 1 281.2 17.401 A 26.379 26.379 0 0 1 281.652 12.358 Q 282.227 9.407 283.534 7.11 A 13.862 13.862 0 0 1 285.4 4.551 A 13.5 13.5 0 0 1 291.93 0.695 Q 294.117 0.098 296.733 0.014 A 27.056 27.056 0 0 1 297.6 0.001 Q 305.5 0.001 309.55 4.551 Q 313.6 9.101 313.6 17.601 L 313.6 20.501 L 303.2 20.501 L 303.2 16.901 Q 303.2 13.488 301.942 11.827 A 4.111 4.111 0 0 0 301.8 11.651 A 4.506 4.506 0 0 0 299.336 10.179 A 7.037 7.037 0 0 0 297.7 10.001 Q 292.2 10.001 292.2 16.701 Q 292.2 20.501 294.25 23.801 Q 296.068 26.728 300.522 30.756 A 82.526 82.526 0 0 0 301.7 31.801 Q 308.6 37.801 311.2 42.701 Q 313.8 47.601 313.8 54.201 Q 313.8 60.335 311.638 64.434 A 13.911 13.911 0 0 1 309.55 67.401 A 13.66 13.66 0 0 1 302.954 71.295 Q 300.735 71.901 298.08 71.987 A 27.431 27.431 0 0 1 297.2 72.001 A 22.4 22.4 0 0 1 292.475 71.534 Q 287.887 70.543 285.1 67.451 Q 281.641 63.612 281.1 56.96 A 31.618 31.618 0 0 1 281 54.401 Z M 0 71.001 L 0 1.001 L 30 1.001 L 30 11.001 L 11 11.001 L 11 29.501 L 26.1 29.501 L 26.1 39.501 L 11 39.501 L 11 61.001 L 30 61.001 L 30 71.001 L 0 71.001 Z M 156 71.001 L 156 1.001 L 186 1.001 L 186 11.001 L 167 11.001 L 167 29.501 L 182.1 29.501 L 182.1 39.501 L 167 39.501 L 167 61.001 L 186 61.001 L 186 71.001 L 156 71.001 Z M 375.8 71.001 L 375.8 1.001 L 405.8 1.001 L 405.8 11.001 L 386.8 11.001 L 386.8 29.501 L 401.9 29.501 L 401.9 39.501 L 386.8 39.501 L 386.8 61.001 L 405.8 61.001 L 405.8 71.001 L 375.8 71.001 Z M 412.1 71.001 L 412.1 1.001 L 442.1 1.001 L 442.1 11.001 L 423.1 11.001 L 423.1 29.501 L 438.2 29.501 L 438.2 39.501 L 423.1 39.501 L 423.1 61.001 L 442.1 61.001 L 442.1 71.001 L 412.1 71.001 Z M 115.7 71.001 L 115.7 1.001 L 132 1.001 A 29.066 29.066 0 0 1 136.417 1.313 Q 138.744 1.672 140.591 2.442 A 11.489 11.489 0 0 1 144.4 4.951 Q 148.3 8.901 148.3 17.101 L 148.3 21.401 A 25.259 25.259 0 0 1 147.878 26.211 Q 147.363 28.858 146.22 30.806 A 10.176 10.176 0 0 1 141.1 35.201 L 141.1 35.401 A 9.225 9.225 0 0 1 144.334 37.075 A 8.631 8.631 0 0 1 146.75 40.301 A 16.431 16.431 0 0 1 147.755 43.427 Q 148.4 46.326 148.4 50.201 L 148.4 62.501 Q 148.4 65.434 148.591 67.268 A 21.93 21.93 0 0 0 148.6 67.351 A 12.134 12.134 0 0 0 149.551 70.888 A 13.583 13.583 0 0 0 149.6 71.001 L 138.4 71.001 A 18.152 18.152 0 0 1 137.875 69.251 A 13.945 13.945 0 0 1 137.6 67.801 A 14.955 14.955 0 0 1 137.514 66.917 Q 137.405 65.413 137.4 62.666 A 147.151 147.151 0 0 1 137.4 62.401 L 137.4 49.601 Q 137.4 44.801 135.85 42.901 A 4.556 4.556 0 0 0 133.983 41.569 Q 133.215 41.258 132.245 41.117 A 12.174 12.174 0 0 0 130.5 41.001 L 126.7 41.001 L 126.7 71.001 L 115.7 71.001 Z M 457 71.001 L 457 11.001 L 445.5 11.001 L 445.5 1.001 L 479.5 1.001 L 479.5 11.001 L 468 11.001 L 468 71.001 L 457 71.001 Z M 77.1 71.001 L 77.1 1.001 L 93.3 1.001 Q 99.03 1.001 102.758 3.149 A 12.152 12.152 0 0 1 105.6 5.401 A 14.033 14.033 0 0 1 108.643 10.725 Q 109.337 12.864 109.575 15.458 A 31.07 31.07 0 0 1 109.7 18.301 L 109.7 25.201 A 28.154 28.154 0 0 1 109.3 30.113 Q 108.825 32.788 107.787 34.9 A 13.197 13.197 0 0 1 105.6 38.101 A 12.931 12.931 0 0 1 99.889 41.597 Q 97.824 42.247 95.323 42.429 A 27.789 27.789 0 0 1 93.3 42.501 L 88.1 42.501 L 88.1 71.001 L 77.1 71.001 Z M 88.1 32.501 L 93.3 32.501 A 7.726 7.726 0 0 0 94.856 32.354 Q 96.422 32.032 97.35 31.001 Q 98.7 29.501 98.7 25.901 L 98.7 17.601 A 15.128 15.128 0 0 0 98.605 15.836 Q 98.341 13.602 97.35 12.501 A 4.268 4.268 0 0 0 95.371 11.278 Q 94.688 11.07 93.864 11.018 A 8.971 8.971 0 0 0 93.3 11.001 L 88.1 11.001 L 88.1 32.501 Z M 126.7 31.001 L 130.7 31.001 Q 134 31.001 135.65 29.301 Q 137.3 27.601 137.3 23.601 L 137.3 18.201 Q 137.3 14.816 136.229 13.097 A 4.26 4.26 0 0 0 135.95 12.701 A 4.239 4.239 0 0 0 133.8 11.281 Q 133.08 11.062 132.203 11.014 A 9.216 9.216 0 0 0 131.7 11.001 L 126.7 11.001 L 126.7 31.001 Z"/></g></svg>