<svg width="147.001" height="72.001" viewBox="0 0 147.001 72.001" xmlns="http://www.w3.org/2000/svg"><g id="svgGroup" stroke-linecap="round" fill-rule="evenodd" font-size="9pt" stroke="#000" stroke-width="0" fill="#000" style="stroke:#000;stroke-width:0;fill:#000"><path d="M 33.5 71.001 L 46.2 35.201 L 34.1 1.001 L 45.7 1.001 L 53.1 23.601 L 53.3 23.601 L 60.9 1.001 L 71.3 1.001 L 59.2 35.201 L 71.9 71.001 L 60.3 71.001 L 52.3 46.601 L 52.1 46.601 L 43.9 71.001 L 33.5 71.001 Z M 114.2 54.401 L 114.2 50.401 L 124.6 50.401 L 124.6 55.201 Q 124.6 61.207 129.047 61.908 A 8.05 8.05 0 0 0 130.3 62.001 Q 133.1 62.001 134.55 60.351 Q 135.938 58.771 135.997 55.314 A 18.22 18.22 0 0 0 136 55.001 A 16.438 16.438 0 0 0 135.468 50.742 A 13.651 13.651 0 0 0 134 47.251 A 19.081 19.081 0 0 0 132.442 45.055 Q 130.334 42.45 126.6 39.201 A 72.472 72.472 0 0 1 122.75 35.563 Q 119.082 31.814 117.225 28.573 A 20.769 20.769 0 0 1 117.1 28.351 A 21.525 21.525 0 0 1 114.48 19.461 A 26.199 26.199 0 0 1 114.4 17.401 A 26.379 26.379 0 0 1 114.852 12.358 Q 115.427 9.407 116.734 7.11 A 13.862 13.862 0 0 1 118.6 4.551 A 13.5 13.5 0 0 1 125.13 0.695 Q 127.317 0.098 129.933 0.014 A 27.056 27.056 0 0 1 130.8 0.001 Q 138.7 0.001 142.75 4.551 Q 146.8 9.101 146.8 17.601 L 146.8 20.501 L 136.4 20.501 L 136.4 16.901 Q 136.4 13.488 135.142 11.827 A 4.111 4.111 0 0 0 135 11.651 A 4.506 4.506 0 0 0 132.536 10.179 A 7.037 7.037 0 0 0 130.9 10.001 Q 125.4 10.001 125.4 16.701 Q 125.4 20.501 127.45 23.801 Q 129.268 26.728 133.722 30.756 A 82.526 82.526 0 0 0 134.9 31.801 Q 141.8 37.801 144.4 42.701 Q 147 47.601 147 54.201 Q 147 60.335 144.838 64.434 A 13.911 13.911 0 0 1 142.75 67.401 A 13.66 13.66 0 0 1 136.154 71.295 Q 133.935 71.901 131.28 71.987 A 27.431 27.431 0 0 1 130.4 72.001 A 22.4 22.4 0 0 1 125.675 71.534 Q 121.087 70.543 118.3 67.451 Q 114.841 63.612 114.3 56.96 A 31.618 31.618 0 0 1 114.2 54.401 Z M 0 71.001 L 0 1.001 L 30 1.001 L 30 11.001 L 11 11.001 L 11 29.501 L 26.1 29.501 L 26.1 39.501 L 11 39.501 L 11 61.001 L 30 61.001 L 30 71.001 L 0 71.001 Z M 77.1 71.001 L 77.1 1.001 L 93.3 1.001 Q 99.03 1.001 102.758 3.149 A 12.152 12.152 0 0 1 105.6 5.401 A 14.033 14.033 0 0 1 108.643 10.725 Q 109.337 12.864 109.575 15.458 A 31.07 31.07 0 0 1 109.7 18.301 L 109.7 25.201 A 28.154 28.154 0 0 1 109.3 30.113 Q 108.825 32.788 107.787 34.9 A 13.197 13.197 0 0 1 105.6 38.101 A 12.931 12.931 0 0 1 99.889 41.597 Q 97.824 42.247 95.323 42.429 A 27.789 27.789 0 0 1 93.3 42.501 L 88.1 42.501 L 88.1 71.001 L 77.1 71.001 Z M 88.1 32.501 L 93.3 32.501 A 7.726 7.726 0 0 0 94.856 32.354 Q 96.422 32.032 97.35 31.001 Q 98.7 29.501 98.7 25.901 L 98.7 17.601 A 15.128 15.128 0 0 0 98.605 15.836 Q 98.341 13.602 97.35 12.501 A 4.268 4.268 0 0 0 95.371 11.278 Q 94.688 11.07 93.864 11.018 A 8.971 8.971 0 0 0 93.3 11.001 L 88.1 11.001 L 88.1 32.501 Z"/></g></svg>